<?xml version="1.0" encoding="UTF-8" standalone="no"?>
<!-- Created with Inkscape (http://www.inkscape.org/) -->

<svg
   viewBox="0 0 297 150"
   version="1.1"
   id="svg741"
   inkscape:version="1.2.2 (b0a84865, 2022-12-01)"
   sodipodi:docname="beneflearn-logo.svg"
   xmlns:inkscape="http://www.inkscape.org/namespaces/inkscape"
   xmlns:sodipodi="http://sodipodi.sourceforge.net/DTD/sodipodi-0.dtd"
   xmlns="http://www.w3.org/2000/svg"
   xmlns:svg="http://www.w3.org/2000/svg">
  <sodipodi:namedview
     id="namedview743"
     pagecolor="#ffffff"
     bordercolor="#000000"
     borderopacity="0.25"
     inkscape:showpageshadow="2"
     inkscape:pageopacity="0.0"
     inkscape:pagecheckerboard="0"
     inkscape:deskcolor="#d1d1d1"
     inkscape:document-units="mm"
     showgrid="false"
     inkscape:zoom="0.2102413"
     inkscape:cx="-323.43788"
     inkscape:cy="561.25984"
     inkscape:window-width="1309"
     inkscape:window-height="456"
     inkscape:window-x="0"
     inkscape:window-y="25"
     inkscape:window-maximized="0"
     inkscape:current-layer="layer1" />
  <defs
     id="defs738" />
  <g
     inkscape:label="Layer 1"
     inkscape:groupmode="layer"
     id="layer1">
    <g
       id="g592"
       transform="matrix(2.1979643,0,0,2.1979643,-28.228578,30.87555)"
       style="fill:#ffffff"
       inkscape:export-filename="beneflearn/white1/1024.png"
       inkscape:export-xdpi="577.64319"
       inkscape:export-ydpi="577.64319">
      <path
         id="path556"
         style="fill:#ffffff;fill-opacity:1;stroke-width:0.0188044;stroke-linecap:round;stroke-linejoin:round"
         d="m 34.072521,29.736208 c 0.249638,0 0.450609,0.169751 0.450609,0.38061 v 12.531757 c 0,0.210861 -0.24649,1.783956 -0.496128,1.783956 -0.249638,0 -0.405093,-1.573095 -0.405093,-1.783956 V 30.116818 c 0,-0.210859 0.200974,-0.38061 0.450612,-0.38061 z"
         sodipodi:nodetypes="sssssss" />
      <path
         style="fill:#ffffff;fill-opacity:1;stroke-width:0.0204606;stroke-linecap:round;stroke-linejoin:round"
         d="m 35.545966,43.03397 c 2.376272,-3.706561 6.278716,-6.928262 11.297433,-8.078792 l -0.611542,3.089897 c -3.634795,-0.800209 -7.48581,2.805 -10.685891,4.988895 z"
         id="path558"
         sodipodi:nodetypes="cccc" />
      <path
         style="fill:#ffffff;fill-opacity:1;stroke-width:0.0204606;stroke-linecap:round;stroke-linejoin:round"
         d="m 35.213056,40.345029 c 1.571613,-4.285917 5.055636,-7.378871 10.203094,-9.269689 l -0.611539,3.089897 c -3.795725,-0.124296 -6.198352,2.772814 -9.591555,6.179792 z"
         id="path560"
         sodipodi:nodetypes="cccc" />
      <path
         style="fill:#ffffff;fill-opacity:1;stroke-width:0.0204606;stroke-linecap:round;stroke-linejoin:round"
         d="m 37.862364,31.366112 c -1.15066,-5.384006 4.481752,-4.731076 6.206688,-5.334696 -0.142483,3.255378 -1.259533,6.935927 -6.070133,5.471251 z"
         id="path562"
         sodipodi:nodetypes="cccc" />
      <path
         style="fill:#ffffff;fill-opacity:1;stroke-width:0.0204606;stroke-linecap:round;stroke-linejoin:round"
         d="m 34.412386,34.57375 c 1.168149,-2.799627 3.776369,-3.728826 5.666382,-5.365191 0.398601,-0.17322 0.32205,0.144352 0.07495,0.42852 -1.87542,1.931904 -4.281231,2.857077 -5.773514,6.48572 z"
         id="path564"
         sodipodi:nodetypes="ccccc" />
      <g
         id="g570"
         style="fill:#ffffff;fill-opacity:1"
         transform="matrix(0.27610852,0,0,0.27610852,5.3157486,-0.3665265)">
        <rect
           style="fill:#ffffff;fill-opacity:1;stroke-width:0.0580861;stroke-linecap:round;stroke-linejoin:round"
           id="rect566"
           width="7.4949613"
           height="5.0397158"
           x="100.40276"
           y="100.50131"
           ry="1.279247" />
        <path
           id="path568"
           style="fill:#ffffff;fill-opacity:1;stroke-width:0.0811239;stroke-linecap:round;stroke-linejoin:round"
           d="m 104.15023,69.138932 c -7.710954,-10e-7 -13.961937,5.139864 -13.961937,13.621908 0,7.429884 9.182214,10.977854 11.168827,16.787089 1.73304,0.379499 3.62633,0.40013 5.49217,0.02067 4.13499,-7.962003 11.26288,-9.341389 11.26288,-16.807759 0,-8.482043 -6.25099,-13.621908 -13.96194,-13.621908 z m 2.913,3.38584 c 5.32082,0.71099 8.74947,6.047692 7.56388,10.345105 -1.99646,-4.770069 -4.1535,-7.371345 -7.56388,-10.345105 z" />
      </g>
      <rect
         style="fill:#ffffff;fill-opacity:1;stroke-width:0.0204606;stroke-linecap:round;stroke-linejoin:round"
         id="rect572"
         width="0.90121973"
         height="4.0554891"
         x="33.621906"
         y="8.6579781"
         ry="0.45060986" />
      <path
         id="path574"
         style="fill:#ffffff;fill-opacity:1;stroke-width:0.0184606;stroke-linecap:round;stroke-linejoin:round"
         d="m 38.825354,10.424329 c 0.180362,0.13491 0.216952,0.388721 0.08204,0.569083 l -1.704636,2.278947 c -0.134912,0.180363 -0.306585,0.258024 -0.486945,0.123114 -0.180362,-0.13491 -0.09635,-0.311365 0.03089,-0.497213 l 1.581431,-2.309749 c 0.127253,-0.185843 0.316851,-0.299092 0.497214,-0.164182 z"
         sodipodi:nodetypes="sssssss" />
      <path
         id="path576"
         style="fill:#ffffff;fill-opacity:1;stroke-width:0.0166644;stroke-linecap:round;stroke-linejoin:round"
         d="m 41.896774,13.164833 c 0.110921,0.170398 0.0445,0.230048 -0.125895,0.340971 l -2.15305,1.401554 c -0.1704,0.110923 -0.202244,0.155725 -0.313165,-0.01467 -0.110924,-0.170398 -0.01709,-0.208201 0.14443,-0.331702 l 1.893535,-1.447896 c 0.16151,-0.123509 0.443221,-0.118652 0.554145,0.05175 z"
         sodipodi:nodetypes="sssssss" />
      <path
         id="path578"
         style="opacity:1;fill:#ffffff;fill-opacity:1;stroke-width:0.0320957;stroke-linecap:round;stroke-linejoin:round"
         inkscape:transform-center-x="-2.5267863e-06"
         inkscape:transform-center-y="1.2891632e-06"
         d="m 34.161337,14.007065 -17.225606,9.842581 -0.08871,19.83901 17.136685,9.996429 17.225497,-9.842587 0.08882,-19.83901 z m -0.01458,1.884783 15.330561,9.724177 -0.05551,14.296286 c -9.256469,0.01284 -13.388618,5.673269 -15.349168,5.864891 -1.954754,-0.190786 -5.072169,-5.808114 -14.265503,-5.865418 -0.03961,-2.04e-4 -1.1724,2.76e-4 -1.212241,5.52e-4 l 0.05602,-14.424944 z M 22.651869,42.737481 c 7.465948,0.04676 9.509372,6.289493 11.373388,6.476891 v 0.0047 c 0.01579,1.82e-4 0.03157,-0.0017 0.04737,-0.0022 0.01577,2.76e-4 0.03162,0.0025 0.04737,0.0022 v -0.0047 c 2.00541,-0.201612 4.219317,-7.410817 13.169054,-6.374012 L 33.998297,52.073409 20.957815,42.827885 c 0.593898,-0.06506 1.158006,-0.09376 1.694056,-0.0904 z"
         sodipodi:nodetypes="ccccccccccccccccccccccccc" />
      <path
         id="path580"
         style="fill:#ffffff;fill-opacity:1;stroke-width:0.0184606;stroke-linecap:round;stroke-linejoin:round"
         d="m 29.302577,10.424329 c -0.180362,0.13491 -0.216952,0.388721 -0.08204,0.569083 l 1.704636,2.278947 c 0.134912,0.180363 0.306585,0.258024 0.486945,0.123114 0.180362,-0.13491 0.09635,-0.311365 -0.03089,-0.497213 l -1.581431,-2.309749 c -0.127253,-0.185843 -0.316851,-0.299092 -0.497213,-0.164182 z"
         sodipodi:nodetypes="sssssss" />
      <path
         id="path582"
         style="fill:#ffffff;fill-opacity:1;stroke-width:0.0166644;stroke-linecap:round;stroke-linejoin:round"
         d="m 26.231157,13.164833 c -0.110921,0.170398 -0.0445,0.230048 0.125894,0.340971 l 2.15305,1.401554 c 0.170401,0.110923 0.202244,0.155725 0.313165,-0.01467 0.110924,-0.170398 0.01709,-0.208201 -0.144429,-0.331702 L 26.785301,13.11309 c -0.16151,-0.123509 -0.44322,-0.118652 -0.554144,0.05175 z"
         sodipodi:nodetypes="sssssss" />
      <path
         style="fill:#ffffff;fill-opacity:1;stroke-width:0.0204606;stroke-linecap:round;stroke-linejoin:round"
         d="M 32.601951,43.03397 C 30.225678,39.327409 26.323235,36.105708 21.304518,34.955178 l 0.611541,3.089897 c 3.634795,-0.800209 7.48581,2.805 10.685892,4.988895 z"
         id="path584"
         sodipodi:nodetypes="cccc" />
      <path
         style="fill:#ffffff;fill-opacity:1;stroke-width:0.0204606;stroke-linecap:round;stroke-linejoin:round"
         d="M 32.93486,40.345029 C 31.363248,36.059112 27.879225,32.966158 22.731767,31.07534 l 0.611539,3.089897 c 3.795724,-0.124296 6.198352,2.772814 9.591554,6.179792 z"
         id="path586"
         sodipodi:nodetypes="cccc" />
      <path
         style="fill:#ffffff;fill-opacity:1;stroke-width:0.0204606;stroke-linecap:round;stroke-linejoin:round"
         d="m 30.285552,31.366112 c 1.15066,-5.384006 -4.481752,-4.731076 -6.206688,-5.334696 0.142483,3.255378 1.259533,6.935927 6.070133,5.471251 z"
         id="path588"
         sodipodi:nodetypes="cccc" />
      <path
         style="fill:#ffffff;fill-opacity:1;stroke-width:0.0204606;stroke-linecap:round;stroke-linejoin:round"
         d="m 33.735533,34.57375 c -1.168151,-2.799627 -3.776372,-3.728826 -5.666384,-5.365191 -0.398602,-0.17322 -0.32205,0.144352 -0.07495,0.42852 1.87542,1.931904 4.281231,2.857077 5.773517,6.48572 z"
         id="path590"
         sodipodi:nodetypes="ccccc" />
    </g>
    <text
       xml:space="preserve"
       style="font-weight:600;font-size:32.2767px;font-family:Damascus;-inkscape-font-specification:'Damascus, Semi-Bold';text-align:center;text-anchor:middle;fill:#ffffff;stroke:none;stroke-width:15.6936;stroke-linecap:round;stroke-linejoin:round;stroke-dasharray:none"
       x="212.17891"
       y="84.974205"
       id="text596"
       transform="scale(0.92484274,1.0812649)"><tspan
         sodipodi:role="line"
         id="tspan594"
         style="fill:#ffffff;stroke:none;stroke-width:15.6936;stroke-dasharray:none"
         x="212.17891"
         y="84.974205">BenefLearn</tspan></text>
    <text
       xml:space="preserve"
       style="font-style:normal;font-variant:normal;font-weight:normal;font-stretch:normal;font-size:15.0207px;font-family:Damascus;-inkscape-font-specification:'Damascus, Normal';font-variant-ligatures:normal;font-variant-caps:normal;font-variant-numeric:normal;font-variant-east-asian:normal;text-align:center;text-anchor:middle;fill:#ffffff;stroke-width:9.68635;stroke-linecap:round;stroke-linejoin:round"
       x="197.38327"
       y="118.0121"
       id="text600"><tspan
         sodipodi:role="line"
         id="tspan598"
         style="font-style:normal;font-variant:normal;font-weight:normal;font-stretch:normal;font-size:15.0207px;font-family:Damascus;-inkscape-font-specification:'Damascus, Normal';font-variant-ligatures:normal;font-variant-caps:normal;font-variant-numeric:normal;font-variant-east-asian:normal;fill:#ffffff;stroke-width:9.68635"
         x="197.38327"
         y="118.0121">KNOWLEDGE, GROWTH, </tspan><tspan
         sodipodi:role="line"
         style="font-style:normal;font-variant:normal;font-weight:normal;font-stretch:normal;font-size:15.0207px;font-family:Damascus;-inkscape-font-specification:'Damascus, Normal';font-variant-ligatures:normal;font-variant-caps:normal;font-variant-numeric:normal;font-variant-east-asian:normal;fill:#ffffff;stroke-width:9.68635"
         x="197.38327"
         y="139.90105"
         id="tspan704">BENEFITS FOR ALL</tspan></text>
  </g>
</svg>
